<svg width="868" height="787" viewBox="0 0 868 787" fill="none" xmlns="http://www.w3.org/2000/svg">
<path d="M816.5 1C805.902 56.6169 641.067 209.954 457 143C272.933 76.0459 78.597 181.655 2 143" stroke="white" stroke-opacity="0.3"/>
<path d="M3 289.686C3 289.686 119.015 394.801 342 281.686C493.769 204.698 650.351 421.613 814.5 377.186" stroke="white" stroke-opacity="0.3"/>
<path d="M3 492C171.986 336.609 340.275 532.8 504.109 316.246C667.944 99.6923 867 316.246 867 316.246" stroke="white" stroke-opacity="0.3"/>
<path d="M1.5 696.999C1.5 696.999 44.4996 787.664 264.5 609C484.5 430.336 744 712 812.5 546.5" stroke="white" stroke-opacity="0.3"/>
<path d="M1 423.851C167.173 388.065 203.787 699.399 575 786" stroke="white" stroke-opacity="0.3"/>
</svg>
