<svg width="53" height="52" viewBox="0 0 53 52" fill="none" xmlns="http://www.w3.org/2000/svg">
<path d="M48.4167 35.0783C48.4167 42.9649 43.715 47.6666 35.8283 47.6666H33.25C32.0583 47.6666 31.0833 46.6916 31.0833 45.4999V32.9983C31.0833 32.4133 31.56 31.9149 32.145 31.9149L35.9583 31.8499C36.2617 31.8283 36.5217 31.6116 36.5867 31.3083L37.345 27.1699C37.41 26.7799 37.1067 26.4116 36.695 26.4116L32.08 26.4766C31.4733 26.4766 30.9967 25.9999 30.975 25.4149L30.8884 20.1066C30.8884 19.7599 31.17 19.4566 31.5383 19.4566L36.7383 19.3699C37.1066 19.3699 37.3884 19.0883 37.3884 18.72L37.3017 13.5199C37.3017 13.1516 37.02 12.8699 36.6517 12.8699L30.8017 12.9566C27.205 13.0216 24.345 15.9682 24.41 19.5649L24.5183 25.5233C24.54 26.1299 24.0634 26.6066 23.4567 26.6283L20.8567 26.6716C20.4883 26.6716 20.2067 26.9532 20.2067 27.3216L20.2717 31.4383C20.2717 31.8066 20.5533 32.0882 20.9217 32.0882L23.5217 32.0449C24.1284 32.0449 24.605 32.5216 24.6267 33.1066L24.8216 45.4566C24.8433 46.6699 23.8683 47.6666 22.655 47.6666H17.6717C9.785 47.6666 5.08334 42.9649 5.08334 35.0566V16.9216C5.08334 9.03491 9.785 4.33325 17.6717 4.33325H35.8283C43.715 4.33325 48.4167 9.03491 48.4167 16.9216V35.0783V35.0783Z" fill="white"/>
</svg>
