<svg width="53" height="52" viewBox="0 0 53 52" fill="none" xmlns="http://www.w3.org/2000/svg">
<path d="M35.8283 4.33325H17.6717C9.78501 4.33325 5.08334 9.03492 5.08334 16.9216V35.0566C5.08334 42.9649 9.78501 47.6666 17.6717 47.6666H35.8067C43.6933 47.6666 48.395 42.9649 48.395 35.0783V16.9216C48.4167 9.03492 43.715 4.33325 35.8283 4.33325ZM26.75 34.4066C22.1133 34.4066 18.3433 30.6366 18.3433 25.9999C18.3433 21.3633 22.1133 17.5933 26.75 17.5933C31.3867 17.5933 35.1567 21.3633 35.1567 25.9999C35.1567 30.6366 31.3867 34.4066 26.75 34.4066ZM39.5767 14.9066C39.4683 15.1666 39.3167 15.4049 39.1217 15.6216C38.905 15.8166 38.6667 15.9683 38.4067 16.0766C38.1467 16.1849 37.865 16.2499 37.5833 16.2499C36.9983 16.2499 36.4567 16.0333 36.045 15.6216C35.85 15.4049 35.6983 15.1666 35.59 14.9066C35.4817 14.6466 35.4167 14.3649 35.4167 14.0833C35.4167 13.8016 35.4817 13.5199 35.59 13.2599C35.6983 12.9783 35.85 12.7616 36.045 12.5449C36.5433 12.0466 37.3017 11.8083 37.995 11.9599C38.1467 11.9816 38.2767 12.0249 38.4067 12.0899C38.5367 12.1333 38.6667 12.1983 38.7967 12.2849C38.905 12.3499 39.0133 12.4583 39.1217 12.5449C39.3167 12.7616 39.4683 12.9783 39.5767 13.2599C39.685 13.5199 39.75 13.8016 39.75 14.0833C39.75 14.3649 39.685 14.6466 39.5767 14.9066Z" fill="white"/>
</svg>
